<svg width="1670" height="276" viewBox="0 0 1670 276" fill="none" xmlns="http://www.w3.org/2000/svg">
<g clip-path="url(#clip0_63_1849)">
<path d="M149.798 185.323C137.382 213.945 124.715 224.56 124.715 224.56C114.209 235.275 101.692 240.632 87.1645 240.632C72.6371 240.632 60.4723 235.572 50.2176 225.453C39.963 215.333 34.8357 203.18 34.8357 188.993C34.8357 174.806 39.963 162.505 50.2176 152.435C60.4723 142.365 72.7879 137.355 87.1645 137.355C101.541 137.355 114.309 142.663 124.715 153.229L149.648 128.476C131.802 111.412 110.992 102.929 87.2148 102.929C63.4381 102.929 42.6774 111.313 25.5864 128.079C8.54554 144.845 0 165.134 0 188.944C0 212.754 8.54554 232.893 25.5864 249.759C42.6272 266.575 63.1868 275.008 87.2148 275.008C111.243 275.008 132.104 266.426 149.798 249.263C160.706 240.086 180.21 204.917 180.21 204.917L149.798 185.273V185.323Z" fill="white"/>
<path d="M332.07 189.44C332.07 213.399 323.524 233.786 306.433 250.652C289.342 267.517 268.632 275.95 244.403 275.95C220.173 275.95 199.463 267.517 182.372 250.652C165.281 233.786 156.735 213.399 156.735 189.44C156.735 165.481 165.281 145.093 182.372 128.228C199.463 111.362 220.123 102.929 244.403 102.929C268.682 102.929 289.342 111.362 306.433 128.228C323.524 145.093 332.07 165.53 332.07 189.44ZM286.024 189.44C286.024 178.031 281.953 168.358 273.86 160.322C265.766 152.336 255.914 148.318 244.352 148.318C232.791 148.318 222.988 152.336 214.845 160.322C206.752 168.308 202.68 178.031 202.68 189.44C202.68 200.849 206.752 210.522 214.845 218.558C222.938 226.544 232.791 230.562 244.352 230.562C255.914 230.562 265.716 226.544 273.86 218.558C281.953 210.571 286.024 200.849 286.024 189.44Z" fill="white"/>
<path d="M390.632 271.635H344.586V0H390.632V271.635Z" fill="white"/>
<path d="M453.567 271.635H407.522V0H453.567V271.635Z" fill="white"/>
<path d="M641.72 271.635H595.675V260.374C586.476 270.742 571.144 275.95 549.629 275.95C525.651 275.95 505.796 267.567 490.011 250.85C474.227 234.134 466.335 213.647 466.335 189.44C466.335 165.233 474.378 144.895 490.464 128.129C506.55 111.313 526.255 102.929 549.629 102.929C570.792 102.929 586.174 108.188 595.675 118.704V107.245H641.72V271.635ZM595.675 189.44C595.675 178.031 591.603 168.358 583.51 160.322C575.417 152.336 565.564 148.318 554.002 148.318C542.441 148.318 532.639 152.336 524.545 160.322C516.452 168.308 512.381 178.031 512.381 189.44C512.381 200.849 516.452 210.522 524.545 218.558C532.639 226.544 542.491 230.562 554.002 230.562C565.514 230.562 575.366 226.544 583.51 218.558C591.603 210.571 595.675 200.849 595.675 189.44Z" fill="white"/>
<path d="M838.167 189.44C838.167 213.647 830.275 234.134 814.491 250.85C798.707 267.567 778.851 275.95 754.873 275.95C733.409 275.95 718.027 270.742 708.828 260.375V271.635H662.782V0H708.828V118.704C718.328 108.188 733.66 102.93 754.873 102.93C778.248 102.93 798.003 111.313 814.038 128.129C830.124 144.945 838.167 165.382 838.167 189.44ZM792.121 189.44C792.121 178.031 788.05 168.358 779.957 160.322C771.864 152.336 762.011 148.318 750.449 148.318C738.888 148.318 729.086 152.336 720.942 160.322C712.799 168.308 708.777 178.031 708.777 189.44C708.777 200.849 712.849 210.522 720.942 218.558C729.035 226.544 738.888 230.562 750.449 230.562C762.011 230.562 771.813 226.544 779.957 218.558C788.05 210.572 792.121 200.849 792.121 189.44Z" fill="white"/>
<path d="M895.07 77.0359L923.723 71.2322V107.84H958.508V131.651H923.723V224.709C923.723 236.118 926.588 243.162 932.319 245.94C938.049 248.668 947.098 249.462 959.363 248.221V273.222C938.301 274.859 922.366 272.28 911.458 265.434C900.549 258.638 895.121 244.947 895.121 224.411V131.651H871.444V107.84H895.121V77.0359H895.07Z" fill="white"/>
<path d="M1112.48 107.841H1141.13V272.925H1112.48V250.652C1107.2 258.986 1099.26 265.186 1088.65 269.254C1078.05 273.322 1067.19 275.455 1056.08 275.653C1029.59 275.653 1008.78 267.319 993.696 250.652C978.615 233.985 971.075 213.647 971.075 189.639C971.075 165.63 978.716 146.284 993.997 129.815C1009.28 113.347 1029.79 105.112 1055.53 105.112C1081.26 105.112 1101.12 113.347 1112.78 129.815L1112.48 107.841ZM1112.48 190.234C1112.48 171.731 1106.6 157.247 1094.78 146.731C1082.97 136.264 1069.7 131.105 1054.92 131.304C1037.98 131.502 1024.51 137.107 1014.61 148.07C1004.65 159.033 999.728 172.872 999.728 189.589C999.728 206.306 1005.01 220.443 1015.51 232.15C1026.02 243.856 1039.94 249.511 1057.28 249.065C1071.71 248.668 1084.53 243.261 1095.69 232.894C1106.9 222.526 1112.48 208.29 1112.48 190.184V190.234Z" fill="white"/>
<path d="M1200.7 59.3271V272.925H1172.05V59.3271H1200.7Z" fill="white"/>
<path d="M1389.76 183.239C1390.36 188.101 1390.16 192.912 1389.15 197.575H1255.34C1255.34 212.853 1260.92 225.304 1272.13 234.977C1283.34 244.65 1295.45 249.462 1308.52 249.462C1318.63 249.462 1327.93 247.13 1336.27 242.467C1344.67 237.805 1351.05 230.959 1355.57 222.03H1385.08C1379.25 239.342 1369.25 252.636 1355.12 262.012C1341 271.387 1325.36 276.05 1308.22 276.05C1286.2 276.05 1267.1 268.51 1250.97 253.48C1234.78 238.449 1226.74 217.467 1226.74 190.631C1226.74 163.794 1234.78 142.861 1250.87 127.93C1266.95 112.999 1286.26 105.509 1308.88 105.509C1329.94 105.509 1348.29 112.305 1363.97 125.946C1379.65 139.587 1388.25 158.685 1389.81 183.339L1389.76 183.239ZM1256.5 172.872H1359.65C1357.13 159.032 1351.1 148.715 1341.7 141.919C1332.25 135.123 1321.29 131.7 1308.83 131.7C1296.36 131.7 1284.95 135.123 1275.25 141.919C1265.49 148.715 1259.26 159.082 1256.55 172.872H1256.5Z" fill="white"/>
<path d="M1417.5 107.841H1446.16V128.278C1456.26 112.999 1472.45 105.41 1494.67 105.41C1516.88 105.41 1535.08 112.404 1546.39 126.293C1557.7 140.232 1563.33 159.529 1563.33 184.132V272.925H1534.98V184.43C1534.98 167.366 1532.06 154.37 1526.23 145.54C1520.4 136.71 1509.6 132.147 1493.81 131.948C1478.98 131.75 1467.37 136.462 1458.87 146.135C1450.38 155.808 1446.16 168.16 1446.16 183.19V272.925H1417.5V107.841Z" fill="white"/>
<path d="M1605.71 77.0359L1634.36 71.2322V107.84H1669.15V131.651H1634.36V224.709C1634.36 236.118 1637.23 243.162 1642.96 245.94C1648.69 248.668 1657.73 249.462 1670 248.221V273.222C1648.94 274.859 1633 272.28 1622.09 265.434C1611.19 258.638 1605.76 244.947 1605.76 224.411V131.651H1582.08V107.84H1605.76V77.0359H1605.71Z" fill="white"/>
<path d="M160.002 165.134C143.564 192.218 117.375 216.722 117.375 216.722C108.93 225.453 98.9263 229.868 87.3144 229.868C75.7025 229.868 66.0511 225.899 58.0082 217.913C49.9653 209.976 45.8936 200.303 45.8936 188.993C45.8936 177.684 49.9151 168.011 58.0082 160.074C66.1013 152.137 75.8533 148.119 87.3144 148.119C98.7755 148.119 108.98 152.435 117.375 161.016L150.099 128.972C132.204 111.61 111.292 102.929 87.3144 102.929C63.3366 102.929 42.6262 111.313 25.6357 128.079C8.54459 144.895 0.0493164 165.183 0.0493164 188.993C0.0493164 212.804 8.54459 233.092 25.5351 249.858C42.5257 266.625 63.0853 275.008 87.2139 275.008C111.342 275.008 132.204 266.327 149.797 248.965C177.193 223.022 194.636 188.944 194.636 188.944L159.951 165.084L160.002 165.134Z" fill="white"/>
</g>
<defs>
<clipPath id="clip0_63_1849">
<rect width="1670" height="276" fill="white"/>
</clipPath>
</defs>
</svg>
